<?xml version="1.0" encoding="utf-8"?><svg xmlns="http://www.w3.org/2000/svg" xmlns:xlink="http://www.w3.org/1999/xlink"><symbol viewBox="0 0 9 7" id="arrow-top" xmlns="http://www.w3.org/2000/svg"><path d="M4.5.009L9 7.001H0z" fill-rule="evenodd"/></symbol><symbol viewBox="0 0 477.175 477.175" id="back" xmlns="http://www.w3.org/2000/svg"><path d="M145.188 238.575l215.5-215.5c5.3-5.3 5.3-13.8 0-19.1s-13.8-5.3-19.1 0l-225.1 225.1c-5.3 5.3-5.3 13.8 0 19.1l225.1 225c2.6 2.6 6.1 4 9.5 4s6.9-1.3 9.5-4c5.3-5.3 5.3-13.8 0-19.1l-215.4-215.5z"/></symbol><symbol viewBox="0 0 492 492" id="close" xmlns="http://www.w3.org/2000/svg"><path d="M300.188 246L484.14 62.04c5.06-5.064 7.852-11.82 7.86-19.024 0-7.208-2.792-13.972-7.86-19.028L468.02 7.872C462.952 2.796 456.196.016 448.984.016c-7.2 0-13.956 2.78-19.024 7.856L246.008 191.82 62.048 7.872C56.988 2.796 50.228.016 43.02.016c-7.2 0-13.96 2.78-19.02 7.856L7.872 23.988c-10.496 10.496-10.496 27.568 0 38.052L191.828 246 7.872 429.952C2.808 435.024.02 441.78.02 448.984c0 7.204 2.788 13.96 7.852 19.028l16.124 16.116c5.06 5.072 11.824 7.856 19.02 7.856 7.208 0 13.968-2.784 19.028-7.856l183.96-183.952 183.952 183.952c5.068 5.072 11.824 7.856 19.024 7.856h.008c7.204 0 13.96-2.784 19.028-7.856l16.12-16.116c5.06-5.064 7.852-11.824 7.852-19.028 0-7.204-2.792-13.96-7.852-19.028L300.188 246z"/></symbol><symbol viewBox="0 0 512 512" id="location" xmlns="http://www.w3.org/2000/svg"><path d="M256 0C138.375 0 42.667 95.698 42.667 213.333c0 57.26 22.417 111.042 63.042 151.354l142.708 144.146A10.63 10.63 0 00256 512c2.854 0 5.583-1.135 7.583-3.167L406.229 364.76c40.688-40.385 63.104-94.167 63.104-151.427C469.333 95.698 373.625 0 256 0zm0 298.667c-47.063 0-85.333-38.281-85.333-85.333 0-47.053 38.27-85.334 85.333-85.334s85.333 38.281 85.333 85.333-38.27 85.334-85.333 85.334z"/></symbol><symbol viewBox="0 0 511.626 511.626" id="mail" xmlns="http://www.w3.org/2000/svg"><path d="M49.106 178.729c6.472 4.567 25.981 18.131 58.528 40.685 32.548 22.554 57.482 39.92 74.803 52.099 1.903 1.335 5.946 4.237 12.131 8.71 6.186 4.476 11.326 8.093 15.416 10.852 4.093 2.758 9.041 5.852 14.849 9.277 5.806 3.422 11.279 5.996 16.418 7.7 5.14 1.718 9.898 2.569 14.275 2.569h.575c4.377 0 9.137-.852 14.277-2.569 5.137-1.704 10.615-4.281 16.416-7.7 5.804-3.429 10.752-6.52 14.845-9.277 4.093-2.759 9.229-6.376 15.417-10.852 6.184-4.477 10.232-7.375 12.135-8.71 17.508-12.179 62.051-43.11 133.615-92.79 13.894-9.703 25.502-21.411 34.827-35.116 9.332-13.699 13.993-28.07 13.993-43.105 0-12.564-4.523-23.319-13.565-32.264-9.041-8.947-19.749-13.418-32.117-13.418H45.679c-14.655 0-25.933 4.948-33.832 14.844C3.949 79.562 0 91.934 0 106.779c0 11.991 5.236 24.985 15.703 38.974 10.466 13.99 21.604 24.983 33.403 32.976z"/><path d="M483.072 209.275c-62.424 42.251-109.824 75.087-142.177 98.501-10.849 7.991-19.65 14.229-26.409 18.699-6.759 4.473-15.748 9.041-26.98 13.702-11.228 4.668-21.692 6.995-31.401 6.995h-.578c-9.707 0-20.177-2.327-31.405-6.995-11.228-4.661-20.223-9.229-26.98-13.702-6.755-4.47-15.559-10.708-26.407-18.699-25.697-18.842-72.995-51.68-141.896-98.501C17.987 202.047 8.375 193.762 0 184.437v226.685c0 12.57 4.471 23.319 13.418 32.265 8.945 8.949 19.701 13.422 32.264 13.422h420.266c12.56 0 23.315-4.473 32.261-13.422 8.949-8.949 13.418-19.694 13.418-32.265V184.437c-8.186 9.132-17.7 17.417-28.555 24.838z"/></symbol><symbol viewBox="0 0 513.64 513.64" id="phone-call" xmlns="http://www.w3.org/2000/svg"><path d="M499.66 376.96l-71.68-71.68c-25.6-25.6-69.12-15.359-79.36 17.92-7.68 23.041-33.28 35.841-56.32 30.72-51.2-12.8-120.32-79.36-133.12-133.12-7.68-23.041 7.68-48.641 30.72-56.32 33.28-10.24 43.52-53.76 17.92-79.36l-71.68-71.68c-20.48-17.92-51.2-17.92-69.12 0L18.38 62.08c-48.64 51.2 5.12 186.88 125.44 307.2s256 176.641 307.2 125.44l48.64-48.64c17.921-20.48 17.921-51.2 0-69.12z" data-original="#000000" class="factive-path" data-old_color="#000000"/></symbol><symbol viewBox="0 0 512 512" id="search" xmlns="http://www.w3.org/2000/svg"><path d="M141.367 116.518c-7.384-7.39-19.364-7.39-26.748 0-27.416 27.416-40.891 65.608-36.975 104.79.977 9.761 9.2 17.037 18.803 17.037.631 0 1.267-.032 1.898-.095 10.398-1.04 17.983-10.316 16.943-20.707-2.787-27.845 6.722-54.92 26.079-74.278 7.39-7.383 7.39-19.364 0-26.747z"/><path d="M216.276 0C97.021 0 0 97.021 0 216.276s97.021 216.276 216.276 216.276 216.276-97.021 216.276-216.276S335.53 0 216.276 0zm0 394.719c-98.396 0-178.443-80.047-178.443-178.443S117.88 37.833 216.276 37.833c98.39 0 178.443 80.047 178.443 178.443s-80.047 178.443-178.443 178.443z"/><path d="M506.458 479.71L368.999 342.252c-7.39-7.39-19.358-7.39-26.748 0-7.39 7.384-7.39 19.364 0 26.748L479.71 506.458A18.848 18.848 0 00493.084 512c4.843 0 9.679-1.847 13.374-5.542 7.389-7.384 7.389-19.364 0-26.748z"/></symbol><symbol viewBox="0 0 24 24" id="skype" xmlns="http://www.w3.org/2000/svg"><path d="M23.309 14.547C25.047 6.737 18.205-.358 10.17 1.004 5.808-1.703 0 1.356 0 6.546c0 1.207.333 2.337.912 3.311-1.615 7.828 5.283 14.821 13.311 13.366 5.675 3.001 11.946-2.984 9.086-8.676zm-7.638 4.71c-2.108.867-5.577.872-7.676-.227-2.993-1.596-3.525-5.189-.943-5.189 1.946 0 1.33 2.269 3.295 3.194.902.417 2.841.46 3.968-.3 1.113-.745 1.011-1.917.406-2.477-1.603-1.48-6.19-.892-8.287-3.483-.911-1.124-1.083-3.107.037-4.545 1.952-2.512 7.68-2.665 10.143-.768 2.274 1.76 1.66 4.096-.175 4.096-2.207 0-1.047-2.888-4.61-2.888-2.583 0-3.599 1.837-1.78 2.731 2.466 1.225 8.75.816 8.75 5.603-.005 1.992-1.226 3.477-3.128 4.253z"/></symbol><symbol viewBox="0 0 24 24" id="telegram" xmlns="http://www.w3.org/2000/svg"><path d="M12 24c6.629 0 12-5.371 12-12S18.629 0 12 0 0 5.371 0 12s5.371 12 12 12zM5.491 11.74l11.57-4.461c.537-.194 1.006.131.832.943l.001-.001-1.97 9.281c-.146.658-.537.818-1.084.508l-3-2.211-1.447 1.394c-.16.16-.295.295-.605.295l.213-3.053 5.56-5.023c.242-.213-.054-.333-.373-.121l-6.871 4.326-2.962-.924c-.643-.204-.657-.643.136-.953z"/></symbol><symbol viewBox="0 0 512.002 512.002" id="viber" xmlns="http://www.w3.org/2000/svg"><path d="M437.976 214.854c.615-72.186-60.866-138.361-137.051-147.512-1.515-.18-3.166-.453-4.913-.743-3.772-.625-7.672-1.267-11.607-1.267-15.614 0-19.788 10.968-20.887 17.51-1.069 6.36-.049 11.701 3.024 15.882 5.171 7.031 14.269 8.279 21.577 9.28 2.142.296 4.163.571 5.855.951 68.449 15.295 91.497 39.341 102.761 107.208.275 1.658.399 3.702.531 5.869.491 8.113 1.515 24.991 19.661 24.991h.002c1.511 0 3.134-.13 4.824-.388 16.898-2.568 16.368-17.996 16.114-25.409-.072-2.088-.14-4.063.037-5.376a7.57 7.57 0 00.072-.996z"/><path d="M279.974 40.846c2.027.146 3.947.286 5.545.531 112.4 17.286 164.091 70.54 178.416 183.819.243 1.926.281 4.274.321 6.761.143 8.85.437 27.262 20.21 27.643l.614.006c6.201 0 11.134-1.87 14.662-5.562 6.155-6.438 5.726-16.002 5.379-23.689-.084-1.886-.165-3.662-.145-5.217C506.405 109.283 406.12 4.226 290.369.32c-.48-.016-.938.01-1.401.075-.227.033-.649.075-1.371.075-1.154 0-2.574-.1-4.08-.202C281.696.143 279.632 0 277.54 0c-18.434 0-21.938 13.102-22.386 20.912-1.034 18.051 16.428 19.321 24.82 19.934zm178.537 330.756c-2.39-1.825-4.861-3.714-7.174-5.578-12.272-9.876-25.328-18.979-37.955-27.783a2807.15 2807.15 0 01-7.852-5.484c-16.174-11.361-30.715-16.882-44.453-16.882-18.504 0-34.636 10.224-47.951 30.384-5.899 8.938-13.056 13.283-21.876 13.283-5.215 0-11.142-1.488-17.612-4.425-52.207-23.674-89.486-59.972-110.803-107.886-10.305-23.158-6.964-38.295 11.172-50.615 10.299-6.99 29.469-20.003 28.111-44.922-1.538-28.298-63.976-113.445-90.284-123.115-11.138-4.096-22.841-4.134-34.846-.095-30.244 10.167-51.947 28.022-62.769 51.631-10.458 22.813-9.986 49.599 1.366 77.463C48.401 238.14 94.538 308.38 152.72 366.342c56.95 56.74 126.946 103.217 208.042 138.137 7.31 3.145 14.977 4.861 20.575 6.112 1.908.429 3.555.795 4.756 1.124.66.18 1.34.277 2.023.283l.641.003h.003c38.142 0 83.941-34.854 98.007-74.59 12.323-34.793-10.177-51.991-28.256-65.809zm-161.666-238.73c-6.53.165-20.121.502-24.889 14.344-2.231 6.468-1.964 12.084.795 16.692 4.048 6.761 11.805 8.833 18.86 9.97 25.586 4.106 38.726 18.254 41.354 44.522 1.221 12.248 9.469 20.801 20.059 20.801h.002c.782 0 1.582-.046 2.379-.143 12.736-1.515 18.911-10.873 18.353-27.81.204-17.677-9.047-37.745-24.781-53.73-15.79-16.034-34.821-25.064-52.132-24.646z"/></symbol><symbol viewBox="0 0 418.135 418.135" id="whatsapp" xmlns="http://www.w3.org/2000/svg"><path d="M198.929.242C88.5 5.5 1.356 97.466 1.691 208.02c.102 33.672 8.231 65.454 22.571 93.536L2.245 408.429c-1.191 5.781 4.023 10.843 9.766 9.483l104.723-24.811c26.905 13.402 57.125 21.143 89.108 21.631 112.869 1.724 206.982-87.897 210.5-200.724C420.113 93.065 320.295-5.538 198.929.242zm124.957 321.955c-30.669 30.669-71.446 47.559-114.818 47.559-25.396 0-49.71-5.698-72.269-16.935l-14.584-7.265-64.206 15.212 13.515-65.607-7.185-14.07c-11.711-22.935-17.649-47.736-17.649-73.713 0-43.373 16.89-84.149 47.559-114.819 30.395-30.395 71.837-47.56 114.822-47.56 43.372.001 84.147 16.891 114.816 47.559 30.669 30.669 47.559 71.445 47.56 114.817-.001 42.986-17.166 84.428-47.561 114.822z"/><path d="M309.712 252.351l-40.169-11.534a14.971 14.971 0 00-14.816 3.903l-9.823 10.008c-4.142 4.22-10.427 5.576-15.909 3.358-19.002-7.69-58.974-43.23-69.182-61.007-2.945-5.128-2.458-11.539 1.158-16.218l8.576-11.095a14.97 14.97 0 001.847-15.21l-16.9-38.223c-4.048-9.155-15.747-11.82-23.39-5.356-11.211 9.482-24.513 23.891-26.13 39.854-2.851 28.144 9.219 63.622 54.862 106.222 52.73 49.215 94.956 55.717 122.449 49.057 15.594-3.777 28.056-18.919 35.921-31.317 5.362-8.453 1.128-19.679-8.494-22.442z"/></symbol><symbol viewBox="0 0 512 512" id="wheel" xmlns="http://www.w3.org/2000/svg"><path d="M256 133.61c-67.484 0-122.39 54.906-122.39 122.39S188.515 378.39 256 378.39 378.39 323.485 378.39 256 323.485 133.61 256 133.61zm0 214.183c-50.613 0-91.793-41.18-91.793-91.793s41.18-91.793 91.793-91.793 91.793 41.18 91.793 91.793-41.18 91.793-91.793 91.793zm0 0" data-original="#000000" class="lactive-path" data-old_color="#000000"/><path d="M499.953 197.703l-39.351-8.555a214.162 214.162 0 00-12.664-30.539l21.785-33.886a15.302 15.302 0 00-2.051-19.09l-61.305-61.305a15.302 15.302 0 00-19.09-2.05l-33.886 21.785a214.162 214.162 0 00-30.54-12.665l-8.554-39.351A15.298 15.298 0 00299.347 0h-86.695a15.298 15.298 0 00-14.949 12.047l-8.555 39.351a214.162 214.162 0 00-30.539 12.664l-33.886-21.785a15.302 15.302 0 00-19.09 2.051l-61.305 61.305a15.302 15.302 0 00-2.05 19.09l21.785 33.886a214.162 214.162 0 00-12.665 30.54l-39.351 8.554A15.301 15.301 0 000 212.653v86.695a15.301 15.301 0 0012.047 14.949l39.351 8.555a214.162 214.162 0 0012.665 30.539l-21.786 33.886a15.302 15.302 0 002.051 19.09l61.305 61.305a15.302 15.302 0 0019.09 2.05l33.886-21.785a214.162 214.162 0 0030.54 12.665l8.554 39.351A15.298 15.298 0 00212.653 512h86.695a15.298 15.298 0 0014.949-12.047l8.555-39.351a214.162 214.162 0 0030.539-12.665l33.886 21.786a15.297 15.297 0 0019.09-2.051l61.305-61.305a15.302 15.302 0 002.05-19.09l-21.784-33.886a214.162 214.162 0 0012.664-30.54l39.351-8.554A15.301 15.301 0 00512 299.347v-86.695a15.301 15.301 0 00-12.047-14.949zm-18.55 89.313l-36.083 7.843a15.307 15.307 0 00-11.488 10.84 183.563 183.563 0 01-16.95 40.88 15.294 15.294 0 00.454 15.792l19.98 31.078-43.863 43.867-31.082-19.98a15.287 15.287 0 00-15.789-.453 183.67 183.67 0 01-40.883 16.949 15.307 15.307 0 00-10.84 11.488l-7.843 36.082h-62.032l-7.843-36.082a15.307 15.307 0 00-10.84-11.488 183.563 183.563 0 01-40.88-16.95 15.303 15.303 0 00-15.792.454l-31.078 19.98-43.864-43.867 19.977-31.078a15.294 15.294 0 00.457-15.793A183.76 183.76 0 0178.168 305.7a15.302 15.302 0 00-11.484-10.84l-36.086-7.843v-62.032l36.082-7.843a15.307 15.307 0 0011.488-10.84 183.563 183.563 0 0116.95-40.88 15.294 15.294 0 00-.454-15.792l-19.98-31.078 43.863-43.867 31.082 19.98a15.287 15.287 0 0015.789.453 183.67 183.67 0 0140.883-16.949 15.307 15.307 0 0010.84-11.488l7.843-36.082h62.032l7.843 36.082a15.307 15.307 0 0010.84 11.488 183.563 183.563 0 0140.88 16.95 15.303 15.303 0 0015.792-.454l31.078-19.98 43.863 43.867-19.976 31.078a15.294 15.294 0 00-.457 15.793 183.576 183.576 0 0116.953 40.879 15.302 15.302 0 0011.484 10.84l36.086 7.843zm0 0" data-original="#000000" class="lactive-path" data-old_color="#000000"/></symbol></svg>